<svg version="1.1" id="Layer_1" xmlns="http://www.w3.org/2000/svg" xmlns:xlink="http://www.w3.org/1999/xlink" x="0px" y="0px"
	 width="100%" viewBox="0 0 481 224" enable-background="new 0 0 481 224" xml:space="preserve">
<path fill="#FEFEFE" opacity="1.000000" stroke="none" 
	d="
M299.000000,225.000000 
	C199.333344,225.000000 100.166702,225.000000 1.000040,225.000000 
	C1.000027,150.333359 1.000027,75.666725 1.000013,1.000070 
	C161.333267,1.000047 321.666534,1.000047 481.999878,1.000023 
	C481.999908,75.666595 481.999908,150.333191 481.999939,224.999893 
	C421.166656,225.000000 360.333344,225.000000 299.000000,225.000000 
M113.811371,160.899933 
	C114.170853,160.173431 114.530334,159.446930 114.994873,158.050446 
	C115.791527,156.416260 116.588188,154.782059 117.953957,152.838852 
	C118.967972,150.914185 119.981987,148.989517 121.090240,146.885971 
	C116.197128,145.357330 113.654663,147.245407 111.298927,150.984894 
	C110.885078,151.449036 110.471230,151.913177 109.341736,152.202713 
	C106.894524,150.136765 104.447311,148.070816 101.723511,145.389877 
	C99.241867,142.172104 96.760223,138.954315 94.705978,135.202560 
	C95.778442,134.378876 96.850914,133.555206 98.245613,133.357330 
	C100.672081,136.301910 103.203125,139.167816 105.494354,142.214111 
	C107.606850,145.022766 109.665169,145.384552 111.792824,142.460678 
	C114.412018,138.861328 117.127319,138.601364 120.288673,141.750381 
	C120.927315,142.386536 121.924873,142.662369 123.273666,143.378769 
	C125.336761,139.465179 127.245628,135.844177 129.672867,131.766983 
	C132.903198,125.538597 136.133530,119.310211 139.848816,112.608284 
	C140.490173,110.381447 141.131531,108.154602 142.216507,105.461578 
	C142.295837,104.628166 142.375168,103.794762 142.739380,102.334557 
	C142.742279,101.880005 142.745178,101.425446 143.217407,100.310989 
	C143.136246,95.327850 143.055084,90.344704 143.410645,84.777100 
	C145.671829,81.434853 147.933014,78.092598 150.758133,74.520576 
	C151.433105,73.449745 152.108078,72.378906 153.061859,71.215546 
	C153.282791,71.002998 153.377899,70.749779 153.919113,70.018127 
	C154.263153,69.393150 154.607193,68.768181 155.518829,68.118607 
	C156.033707,68.334496 156.548599,68.550392 157.122009,69.451523 
	C157.914978,69.810318 158.707932,70.169113 159.500900,70.527908 
	C159.709595,69.329445 160.343735,68.014839 160.053711,66.952522 
	C158.764984,62.231792 161.339386,59.331146 164.263321,56.063931 
	C166.186630,60.000237 167.847656,63.399727 169.508682,66.799217 
	C170.131577,66.613426 170.754486,66.427628 171.377380,66.241829 
	C171.266174,64.433922 171.288269,62.605976 171.020111,60.821651 
	C169.986984,53.947018 166.455307,46.977528 172.203018,40.416763 
	C172.650085,39.906429 171.748489,38.214584 171.473740,37.071884 
	C170.418869,37.676064 168.703232,38.058556 168.414307,38.919720 
	C166.225311,45.444225 160.549927,46.935059 154.990616,48.701508 
	C153.089462,49.305595 151.143311,49.872086 149.387863,50.783443 
	C148.600906,51.191994 148.232620,52.406990 147.674347,53.256031 
	C148.530502,53.567177 149.401169,54.175907 150.240143,54.134953 
	C153.012344,53.999619 155.773087,53.629646 159.970520,53.204750 
	C157.893890,56.779224 156.448700,59.266823 154.404922,61.694775 
	C153.708878,62.050121 153.012848,62.405472 151.608322,62.642963 
	C151.005524,63.434059 150.402710,64.225151 150.031937,65.819847 
	C150.033768,67.474174 150.035614,69.128510 149.606079,71.024765 
	C149.177170,71.713417 148.748260,72.402077 147.752289,73.477814 
	C146.073029,75.644508 144.393753,77.811203 142.190048,79.553192 
	C140.881897,76.692520 139.573730,73.831856 138.180695,70.244736 
	C135.623901,66.515182 133.067108,62.785622 130.387314,58.445160 
	C127.382164,55.912178 124.377022,53.379200 121.045174,50.229485 
	C120.105583,49.569405 119.207191,48.839157 118.220230,48.259762 
	C103.190346,39.436481 87.508965,39.317886 71.725853,43.994576 
	C73.031944,41.866852 74.338036,39.739132 75.682274,37.549267 
	C71.304276,37.976913 68.787956,40.877052 67.378456,44.563534 
	C65.460464,49.579971 62.982777,51.060139 57.637184,48.669109 
	C52.849117,46.527454 47.603340,46.905258 41.663689,50.451077 
	C46.868908,50.883774 50.660000,50.812653 54.223972,51.677490 
	C55.736412,52.044506 56.772480,54.374619 57.378189,56.093544 
	C54.588421,59.063190 51.798653,62.032837 48.462345,65.392334 
	C47.346615,67.598564 46.230885,69.804794 44.621967,72.556061 
	C43.753323,75.372528 42.884678,78.188995 41.602165,81.630196 
	C41.311249,84.425720 41.020329,87.221245 40.408043,90.776932 
	C40.557091,92.867630 40.706142,94.958328 40.701023,97.876640 
	C41.123070,100.251907 41.545116,102.627167 41.904633,105.777702 
	C42.872120,108.358490 43.839607,110.939278 44.851826,114.211365 
	C48.166851,120.242104 51.481876,126.272835 54.873096,133.001099 
	C57.065872,136.127838 59.258652,139.254562 61.537807,142.710281 
	C61.537807,142.710281 61.695602,143.017487 61.558632,143.714005 
	C61.735817,144.146851 61.913006,144.579681 62.194767,145.787903 
	C62.780403,147.249649 63.366039,148.711380 63.313339,150.638687 
	C58.570652,152.611282 53.966408,155.075485 49.057510,156.457840 
	C37.548862,159.698715 33.691208,156.403763 34.235203,144.525497 
	C34.304897,143.003723 34.244743,141.475983 34.244743,139.101227 
	C33.153568,140.323685 32.084877,141.059799 31.669130,142.065765 
	C29.770645,146.659515 27.583641,151.209824 26.374430,155.996536 
	C23.999197,165.399048 28.859749,170.931824 38.145657,168.281357 
	C47.122086,165.719208 55.501854,161.075958 64.164345,157.395432 
	C65.594261,156.787872 67.130096,156.429596 68.629509,156.658310 
	C69.064018,157.448822 69.498520,158.239319 70.024063,159.728439 
	C71.408707,161.880295 72.793358,164.032150 74.241737,166.865097 
	C77.351830,172.541595 80.411743,178.246338 83.584663,183.887512 
	C87.582970,190.996140 95.705154,191.315353 99.951874,184.382889 
	C103.419357,178.722458 106.472244,172.808044 110.262543,166.834564 
	C111.202858,164.955490 112.143173,163.076431 113.043037,161.078110 
	C113.043037,161.078110 113.167709,161.060486 113.811371,160.899933 
M416.617889,119.354904 
	C414.957397,120.853912 413.296875,122.352921 411.003510,124.040115 
	C407.572937,126.994606 404.142365,129.949097 400.306091,132.999039 
	C400.029297,133.146286 399.897980,133.376495 399.357788,133.960602 
	C398.917236,134.390686 398.476654,134.820770 397.417572,135.311035 
	C396.813599,135.812637 396.209595,136.314255 395.094116,136.946198 
	C394.736237,137.313965 394.378326,137.681747 393.399933,138.118286 
	C392.856873,138.709763 392.313812,139.301224 391.203308,140.081863 
	C390.838165,140.731979 390.472992,141.382111 389.681854,142.678329 
	C390.139496,146.035538 390.597137,149.392746 391.960968,152.973267 
	C406.969543,152.973267 421.978088,152.973267 437.198669,152.973267 
	C437.198669,150.551819 437.198669,148.767136 437.420441,146.105896 
	C437.320465,144.543335 437.220490,142.980759 437.110809,141.266602 
	C427.335968,141.266602 418.119263,141.266602 408.684265,140.516998 
	C408.687012,139.997116 408.689728,139.477234 409.102173,138.495758 
	C409.494537,138.027969 409.886932,137.560181 410.820709,136.991196 
	C411.275391,136.443161 411.730072,135.895142 412.873810,135.197510 
	C416.628204,132.234177 420.382568,129.270828 424.809692,126.118584 
	C428.357697,122.793526 431.905731,119.468475 436.190155,115.916260 
	C436.274109,112.650574 436.358063,109.384880 436.580231,105.353226 
	C434.948334,104.943398 433.319427,104.192978 431.684021,104.178436 
	C420.122925,104.075607 408.560486,104.122223 396.998474,104.124405 
	C389.512299,104.125816 389.512299,104.128265 390.392609,112.774666 
	C390.458588,113.487228 390.524597,114.199799 390.358948,115.493294 
	C390.932983,115.835999 391.507019,116.178703 392.979797,116.746246 
	C401.041168,116.685768 409.102509,116.625290 417.269226,117.405518 
	C417.259430,117.968277 417.249634,118.531044 416.617889,119.354904 
M322.200500,117.112160 
	C319.390503,121.713997 316.580505,126.315834 313.372009,131.060623 
	C313.126648,131.251404 313.018372,131.501495 312.148499,132.080933 
	C311.299194,131.560883 309.703827,131.021942 309.716431,130.523727 
	C309.837646,125.734993 307.699982,120.551079 312.458801,116.298615 
	C306.970276,116.298615 302.094879,116.298615 296.930481,116.298615 
	C301.295074,120.499451 301.363647,149.043594 297.170135,153.067719 
	C302.156586,153.067719 306.993073,153.067719 310.802856,153.067719 
	C310.347687,149.563812 309.657928,146.338806 309.581238,143.099289 
	C309.498383,139.599274 311.252319,139.102722 313.917694,141.728210 
	C313.917694,141.728210 314.307159,141.967941 314.343018,142.549942 
	C314.873840,143.083206 315.404633,143.616455 316.020325,144.717468 
	C316.406830,145.124512 316.793365,145.531540 317.235657,146.547989 
	C317.784821,147.120712 318.333984,147.693451 319.049896,148.904709 
	C320.908478,150.084015 322.767029,151.263336 324.811249,152.896149 
	C325.541870,152.939453 326.272461,152.982758 327.819427,153.215714 
	C329.212158,153.225937 330.604889,153.236160 332.517883,153.659348 
	C334.021362,153.222656 335.524811,152.785980 337.829437,152.858917 
	C353.212921,152.858917 368.596436,152.858917 384.198975,152.858917 
	C384.198975,150.557617 384.198975,148.768234 384.420959,146.103149 
	C384.321777,144.543442 384.222595,142.983749 384.099152,141.042770 
	C374.201019,141.042770 364.837646,141.010712 355.474762,141.065674 
	C353.183472,141.079132 351.073700,141.116013 351.253510,137.302338 
	C351.257385,136.344223 351.261261,135.386093 352.137939,134.178421 
	C360.424469,134.106232 368.721710,133.754715 376.993225,134.072754 
	C381.530670,134.247223 382.082031,132.323364 382.040070,128.528046 
	C381.999207,124.833069 381.648071,122.783455 377.027252,122.919823 
	C368.437317,123.173325 359.825989,122.700401 351.310089,121.770813 
	C351.324493,120.223557 351.338867,118.676308 352.237457,116.987587 
	C362.135742,116.842850 372.034027,116.698112 382.498962,116.827126 
	C383.094666,116.209152 383.690369,115.591187 384.370575,114.130417 
	C384.339539,112.438301 384.308472,110.746178 384.663818,108.423454 
	C385.238159,105.634949 384.651093,104.047920 381.255890,104.077652 
	C367.651489,104.196800 354.045227,104.165726 340.440125,104.099129 
	C337.464752,104.084564 336.506287,105.291000 337.163177,108.951813 
	C337.225281,111.630699 337.287384,114.309586 337.130035,117.863228 
	C337.206268,120.261261 337.282532,122.659286 337.178833,125.902222 
	C337.244568,127.622757 337.310303,129.343292 337.215424,131.499130 
	C337.215424,131.499130 337.370483,131.936447 337.227539,132.459641 
	C337.273102,132.634583 337.318695,132.809540 337.137695,133.828537 
	C337.212463,135.564316 337.287262,137.300095 337.169556,139.902267 
	C337.149384,142.270645 337.129242,144.639008 336.961578,147.903137 
	C336.993195,149.414169 337.024811,150.925201 336.279419,152.590683 
	C335.965515,152.483643 335.534271,152.473297 335.354736,152.255493 
	C330.003845,145.763123 324.641785,139.278778 319.418335,132.684769 
	C319.012756,132.172775 319.273224,130.586731 319.788757,129.978210 
	C323.779266,125.267921 327.908813,120.675438 331.942688,116.106071 
	C329.290253,116.345581 326.093628,116.634232 322.200500,117.112160 
M262.244873,120.760124 
	C262.225220,128.749100 262.384735,136.744675 262.091400,144.723587 
	C261.984741,147.624435 260.798065,150.485580 260.085999,153.440048 
	C260.202972,153.425156 261.105133,153.310333 262.934906,153.334793 
	C270.316254,153.063095 277.697601,152.791397 285.163239,153.061386 
	C288.755676,150.955215 289.598450,147.452332 287.036713,144.042953 
	C285.949677,145.742279 284.929810,147.336655 283.286041,149.005707 
	C282.561584,149.404968 281.837128,149.804214 280.529846,150.323181 
	C280.026459,150.611038 279.523071,150.898880 278.179810,151.171646 
	C276.780243,151.190918 275.380707,151.210190 273.321136,150.607437 
	C273.315674,145.845444 273.310211,141.083450 274.096619,136.325119 
	C276.362030,136.630920 278.627441,136.936737 282.255707,137.426514 
	C281.497375,135.932999 280.811462,134.582092 279.583740,133.472092 
	C279.061218,133.698685 278.538666,133.925262 277.209717,134.139236 
	C276.134766,134.156296 275.059784,134.173340 273.317047,133.579041 
	C273.301147,128.477905 273.285248,123.376770 274.108582,118.271454 
	C277.139130,118.545082 280.166504,118.876709 283.202911,119.044144 
	C283.821594,119.078262 284.474274,118.494850 285.111298,118.196121 
	C284.765411,117.780983 284.419525,117.365852 283.808014,116.242363 
	C275.554596,116.242363 267.301208,116.242363 259.047791,116.242363 
	C258.993439,116.465149 258.939056,116.687935 258.884705,116.910721 
	C259.849152,117.357399 260.813599,117.804077 261.976166,118.801735 
	C262.157288,119.147232 262.338409,119.492722 262.244873,120.760124 
M185.125595,151.647491 
	C184.613190,152.098572 184.100784,152.549667 183.588379,153.000748 
	C184.401520,153.070847 185.214676,153.140945 186.848785,153.389069 
	C190.171494,153.316498 193.494202,153.243912 197.335083,153.515747 
	C197.800018,153.008209 198.753510,152.305206 198.642624,152.028076 
	C198.232758,151.003693 196.920425,150.116486 196.926376,149.183990 
	C196.992065,138.896194 197.242111,128.609589 198.203369,118.344772 
	C200.428696,118.593094 202.654007,118.841423 205.436203,119.386101 
	C205.902054,120.180664 206.367905,120.975235 207.382935,122.706490 
	C208.106445,120.359276 208.615097,118.709106 209.123734,117.058945 
	C207.529221,116.593887 205.955627,116.015923 204.330719,115.714966 
	C203.600555,115.579735 202.767853,115.998161 201.053421,116.048500 
	C194.027908,116.078552 187.002380,116.108604 179.658707,115.827293 
	C179.104080,115.876518 178.549438,115.925743 177.196594,115.787743 
	C174.609100,115.325294 173.623367,116.388580 173.954269,119.543350 
	C174.115509,120.409042 174.276764,121.274734 174.426056,122.076225 
	C176.109222,120.872627 177.815598,119.652443 180.288483,118.428383 
	C182.084488,118.357033 183.880493,118.285690 186.238586,118.980415 
	C186.394913,120.763229 186.657684,122.544151 186.689346,124.329178 
	C186.835205,132.550629 186.916656,140.773239 186.799606,149.538956 
	C186.441513,150.231369 186.083435,150.923782 185.125595,151.647491 
M231.402451,116.015945 
	C226.528854,116.015945 221.655258,116.015945 216.280197,116.015945 
	C220.561707,121.248970 220.304108,149.125824 216.376328,153.014679 
	C221.277588,153.014679 226.079620,153.014679 229.428207,153.014679 
	C229.151337,147.365601 228.892288,142.080200 228.633240,136.794800 
	C229.303619,136.594345 229.974014,136.393906 230.644394,136.193451 
	C231.947800,138.678848 233.326828,141.127914 234.540924,143.656189 
	C238.796265,152.517746 243.870880,154.940720 253.047546,152.942947 
	C249.041809,147.844772 244.822906,142.475281 239.965332,136.292953 
	C241.221085,135.496613 242.263794,134.982315 243.132126,134.258759 
	C246.538284,131.420471 248.233093,127.338921 246.453323,123.596329 
	C245.089294,120.728004 241.642868,118.589996 238.701233,116.832504 
	C237.023727,115.830276 234.501373,116.242149 231.402451,116.015945 
z"/>
<path fill="#153D76" opacity="1.000000" stroke="none" 
	d="
M68.616974,155.956116 
	C67.130096,156.429596 65.594261,156.787872 64.164345,157.395432 
	C55.501854,161.075958 47.122086,165.719208 38.145657,168.281357 
	C28.859749,170.931824 23.999197,165.399048 26.374430,155.996536 
	C27.583641,151.209824 29.770645,146.659515 31.669130,142.065765 
	C32.084877,141.059799 33.153568,140.323685 34.244743,139.101227 
	C34.244743,141.475983 34.304897,143.003723 34.235203,144.525497 
	C33.691208,156.403763 37.548862,159.698715 49.057510,156.457840 
	C53.966408,155.075485 58.570652,152.611282 63.919838,150.371201 
	C66.009422,149.049316 67.492508,147.994934 69.320358,146.894257 
	C73.659271,143.984650 77.653412,141.121323 81.940582,138.178650 
	C86.349480,134.865128 90.465347,131.630966 94.901779,128.309937 
	C101.277962,122.656906 107.333572,117.090721 113.684013,111.413910 
	C114.970940,110.271393 115.963036,109.239487 117.277679,108.080971 
	C120.518875,104.986206 123.437515,102.018051 126.692810,99.041451 
	C128.021317,99.359482 129.013184,99.685959 129.857178,100.315277 
	C126.086700,104.754807 122.464096,108.891495 118.502808,113.046059 
	C117.579788,113.906471 116.995453,114.749008 116.105072,115.706444 
	C109.840485,121.458069 103.881935,127.094795 97.923386,132.731522 
	C96.850914,133.555206 95.778442,134.378876 94.197655,135.574005 
	C89.744514,139.217972 85.799706,142.490509 81.539520,145.882202 
	C79.132370,147.633270 77.040604,149.265167 74.605530,150.964157 
	C72.380470,152.672852 70.498726,154.314484 68.616974,155.956116 
z"/>
<path fill="#1E1E1E" opacity="1.000000" stroke="none" 
	d="
M231.880951,116.016609 
	C234.501373,116.242149 237.023727,115.830276 238.701233,116.832504 
	C241.642868,118.589996 245.089294,120.728004 246.453323,123.596329 
	C248.233093,127.338921 246.538284,131.420471 243.132126,134.258759 
	C242.263794,134.982315 241.221085,135.496613 239.965332,136.292953 
	C244.822906,142.475281 249.041809,147.844772 253.047546,152.942947 
	C243.870880,154.940720 238.796265,152.517746 234.540924,143.656189 
	C233.326828,141.127914 231.947800,138.678848 230.644394,136.193451 
	C229.974014,136.393906 229.303619,136.594345 228.633240,136.794800 
	C228.892288,142.080200 229.151337,147.365601 229.428207,153.014679 
	C226.079620,153.014679 221.277588,153.014679 216.376328,153.014679 
	C220.304108,149.125824 220.561707,121.248970 216.280197,116.015945 
	C221.655258,116.015945 226.528854,116.015945 231.880951,116.016609 
M231.279495,118.258369 
	C230.225952,119.205582 228.347336,120.085167 228.263184,121.111832 
	C227.917847,125.325211 228.118896,129.583374 228.118896,133.789169 
	C233.156219,134.829849 235.752823,132.869095 236.850571,128.751648 
	C238.180252,123.764236 236.620483,120.497284 231.279495,118.258369 
z"/>
<path fill="#85D861" opacity="1.000000" stroke="none" 
	d="
M113.389183,111.524536 
	C107.333572,117.090721 101.277962,122.656906 94.621475,128.036484 
	C91.460892,124.785568 88.883713,121.735641 86.347610,118.651932 
	C84.647873,116.585190 82.894417,116.069656 81.019707,118.372910 
	C75.376678,125.305908 69.754524,132.255890 64.077759,139.501373 
	C63.661591,140.518082 63.291897,141.232620 62.549393,142.038391 
	C61.934868,142.213501 61.693146,142.297394 61.451431,142.381302 
	C59.258652,139.254562 57.065872,136.127838 55.144890,132.447815 
	C57.304176,128.904953 59.191673,125.915352 61.432915,122.976089 
	C64.593170,120.755341 67.503532,116.469978 70.185829,116.608253 
	C76.979996,116.958519 79.296562,113.372543 81.147545,108.204353 
	C81.704666,106.648796 82.399445,105.106979 83.276443,103.713211 
	C83.932220,102.670998 85.274551,100.981934 85.796860,101.152832 
	C86.987846,101.542503 88.160461,102.729500 88.816452,103.889046 
	C92.262535,109.980438 92.292305,110.101364 97.547913,104.991394 
	C100.174919,102.437172 101.804329,102.501572 104.421097,105.327591 
	C106.830795,107.929985 110.355591,109.499847 113.389183,111.524536 
z"/>
<path fill="#CCE56E" opacity="1.000000" stroke="none" 
	d="
M109.708954,167.006241 
	C106.472244,172.808044 103.419357,178.722458 99.951874,184.382889 
	C95.705154,191.315353 87.582970,190.996140 83.584663,183.887512 
	C80.411743,178.246338 77.351830,172.541595 74.404572,166.384811 
	C74.945595,165.609756 75.323776,165.315002 75.999649,164.948944 
	C76.537949,164.574249 76.778564,164.270859 77.015442,163.990723 
	C77.011703,164.013962 76.965309,164.005875 77.346939,164.055023 
	C78.812607,163.726501 79.938316,163.438354 80.973778,162.956329 
	C86.729881,160.276703 86.712646,160.263107 88.334694,166.582092 
	C89.365166,170.596497 90.429802,174.602127 91.479111,178.611694 
	C93.800819,173.788895 94.979965,169.046448 96.134491,164.298004 
	C96.832451,161.427368 98.193733,160.449387 101.120361,161.962387 
	C103.572487,163.230072 106.273346,164.016632 108.917450,165.024551 
	C108.970825,165.032867 108.994095,165.138367 109.063896,165.467316 
	C109.325447,166.199585 109.517197,166.602905 109.708954,167.006241 
z"/>
<path fill="#82D75E" opacity="1.000000" stroke="none" 
	d="
M98.084503,133.044434 
	C103.881935,127.094795 109.840485,121.458069 116.295883,116.059036 
	C118.551399,118.229927 120.310051,120.163132 122.248886,122.378967 
	C124.670876,125.848793 126.912674,129.035980 129.154480,132.223175 
	C127.245628,135.844177 125.336761,139.465179 123.273666,143.378769 
	C121.924873,142.662369 120.927315,142.386536 120.288673,141.750381 
	C117.127319,138.601364 114.412018,138.861328 111.792824,142.460678 
	C109.665169,145.384552 107.606850,145.022766 105.494354,142.214111 
	C103.203125,139.167816 100.672081,136.301910 98.084503,133.044434 
z"/>
<path fill="#A2DD4B" opacity="1.000000" stroke="none" 
	d="
M121.371872,50.846222 
	C124.377022,53.379200 127.382164,55.912178 130.077347,58.822510 
	C124.400841,59.467205 119.010201,59.522465 113.682129,60.128185 
	C112.034454,60.315498 110.557076,62.000797 108.634171,62.963135 
	C98.803871,57.825493 88.996010,57.951290 78.935333,60.647743 
	C76.911705,58.857735 74.948334,57.413109 73.005600,55.649139 
	C72.626442,54.414543 72.226631,53.499290 72.057297,52.199104 
	C78.821976,51.541561 85.353966,51.138367 91.890930,51.026924 
	C101.716087,50.859421 111.544716,50.896259 121.371872,50.846222 
z"/>
<path fill="#97D546" opacity="1.000000" stroke="none" 
	d="
M417.163879,116.564819 
	C409.102509,116.625290 401.041168,116.685768 392.477905,116.405014 
	C391.514221,115.679985 391.052399,115.296181 390.590607,114.912369 
	C390.524597,114.199799 390.458588,113.487228 390.793945,112.270905 
	C391.700836,110.267456 392.206390,108.767761 393.140930,105.995438 
	C400.102509,105.995438 407.331909,105.979340 414.561218,105.999947 
	C421.854828,106.020737 429.148407,106.077942 436.442017,106.119194 
	C436.358063,109.384880 436.274109,112.650574 435.320526,115.988968 
	C429.620728,116.045181 424.790558,116.028694 419.661133,116.004669 
	C418.629211,116.186363 417.896545,116.375587 417.163879,116.564819 
z"/>
<path fill="#97D546" opacity="1.000000" stroke="none" 
	d="
M337.349487,116.988472 
	C337.287384,114.309586 337.225281,111.630699 337.643494,108.487656 
	C341.887878,107.672592 345.647797,107.084923 349.416870,107.018646 
	C358.030243,106.867188 366.653748,106.794067 375.261200,107.066399 
	C378.284546,107.162064 381.273041,108.359634 384.277435,109.054062 
	C384.308472,110.746178 384.339539,112.438301 384.012695,114.581757 
	C383.080658,115.539856 382.506500,116.046623 381.932312,116.553383 
	C372.034027,116.698112 362.135742,116.842850 351.305237,117.020851 
	C346.031830,117.032234 341.690674,117.010353 337.349487,116.988472 
z"/>
<path fill="#1E1E1E" opacity="1.000000" stroke="none" 
	d="
M313.871185,141.273239 
	C311.252319,139.102722 309.498383,139.599274 309.581238,143.099289 
	C309.657928,146.338806 310.347687,149.563812 310.802856,153.067719 
	C306.993073,153.067719 302.156586,153.067719 297.170135,153.067719 
	C301.363647,149.043594 301.295074,120.499451 296.930481,116.298615 
	C302.094879,116.298615 306.970276,116.298615 312.458801,116.298615 
	C307.699982,120.551079 309.837646,125.734993 309.716431,130.523727 
	C309.703827,131.021942 311.299194,131.560883 312.583984,132.306885 
	C309.493652,135.817551 313.795471,138.339478 313.871185,141.273239 
z"/>
<path fill="#7EC23B" opacity="1.000000" stroke="none" 
	d="
M337.376038,131.063828 
	C337.310303,129.343292 337.244568,127.622757 337.704407,125.464394 
	C340.333313,125.012520 342.499115,125.309296 344.523376,124.902252 
	C346.822815,124.439873 348.995667,123.348076 351.223541,122.529892 
	C359.825989,122.700401 368.437317,123.173325 377.027252,122.919823 
	C381.648071,122.783455 381.999207,124.833069 382.040070,128.528046 
	C382.082031,132.323364 381.530670,134.247223 376.993225,134.072754 
	C368.721710,133.754715 360.424469,134.106232 351.471497,133.952698 
	C346.324768,133.479462 341.844543,133.231964 337.364288,132.984482 
	C337.318695,132.809540 337.273102,132.634583 337.407104,132.109711 
	C337.728943,131.475677 337.658752,131.243683 337.376038,131.063828 
z"/>
<path fill="#B0E756" opacity="1.000000" stroke="none" 
	d="
M121.208527,50.537853 
	C111.544716,50.896259 101.716087,50.859421 91.890930,51.026924 
	C85.353966,51.138367 78.821976,51.541561 71.631470,52.137589 
	C71.122536,49.907448 71.269897,47.353893 71.417267,44.800339 
	C87.508965,39.317886 103.190346,39.436481 118.220230,48.259762 
	C119.207191,48.839157 120.105583,49.569405 121.208527,50.537853 
z"/>
<path fill="#22447E" opacity="1.000000" stroke="none" 
	d="
M149.799911,65.016251 
	C150.402710,64.225151 151.005524,63.434059 152.286621,62.757923 
	C153.644455,62.500061 154.323975,62.127239 155.003510,61.754417 
	C156.448700,59.266823 157.893890,56.779224 159.970520,53.204750 
	C155.773087,53.629646 153.012344,53.999619 150.240143,54.134953 
	C149.401169,54.175907 148.530502,53.567177 147.674347,53.256035 
	C148.232620,52.406990 148.600906,51.191994 149.387863,50.783443 
	C151.143311,49.872086 153.089462,49.305595 154.990616,48.701508 
	C160.549927,46.935059 166.225311,45.444225 168.414307,38.919720 
	C168.703232,38.058556 170.418869,37.676064 171.473740,37.071884 
	C171.748489,38.214584 172.650085,39.906429 172.203018,40.416763 
	C166.455307,46.977528 169.986984,53.947018 171.020111,60.821651 
	C171.288269,62.605976 171.266174,64.433922 171.377380,66.241829 
	C170.754486,66.427628 170.131577,66.613426 169.508682,66.799217 
	C167.847656,63.399727 166.186630,60.000237 164.263321,56.063931 
	C161.339386,59.331146 158.764984,62.231792 160.053711,66.952522 
	C160.343735,68.014839 159.709595,69.329445 159.500900,70.527908 
	C158.707932,70.169113 157.914978,69.810318 157.033508,68.825562 
	C156.280426,68.180794 155.615829,68.162003 154.951233,68.143204 
	C154.607193,68.768181 154.263153,69.393150 153.562592,69.719742 
	C153.009583,67.227013 153.283615,64.668839 149.799911,65.016251 
z"/>
<path fill="#181818" opacity="1.000000" stroke="none" 
	d="
M196.816910,153.171341 
	C193.494202,153.243912 190.171494,153.316498 186.370193,152.899933 
	C185.836182,152.145920 185.780762,151.881058 185.725357,151.616211 
	C186.083435,150.923782 186.441513,150.231369 187.186493,148.960510 
	C187.666458,139.363235 187.831177,130.343842 187.755386,121.326439 
	C187.746628,120.283325 186.401855,119.251434 185.676498,118.214348 
	C183.880493,118.285690 182.084488,118.357033 179.532166,118.304993 
	C177.249481,118.433403 175.723129,118.685211 174.196762,118.937012 
	C173.623367,116.388580 174.609100,115.325294 177.722565,116.107666 
	C178.824646,116.331284 179.400757,116.234978 179.976868,116.138657 
	C187.002380,116.108604 194.027908,116.078552 201.749725,116.336647 
	C203.672119,116.834648 204.898239,117.044502 206.562744,117.329391 
	C205.869476,118.054344 205.374405,118.572044 204.879333,119.089752 
	C202.654007,118.841423 200.428696,118.593094 197.387329,118.256500 
	C195.980881,119.693619 194.914291,121.208435 194.880188,122.746155 
	C194.706665,130.570312 194.649307,138.405121 194.893219,146.225540 
	C194.965973,148.558533 196.144821,150.857040 196.816910,153.171341 
z"/>
<path fill="#61AB2E" opacity="1.000000" stroke="none" 
	d="
M384.198975,146.978851 
	C384.198975,148.768234 384.198975,150.557617 384.198975,152.858917 
	C368.596436,152.858917 353.212921,152.858917 337.432861,152.626465 
	C337.036255,152.394028 337.056427,152.436234 337.056427,152.436234 
	C337.024811,150.925201 336.993195,149.414169 337.456909,147.450592 
	C353.367798,146.991638 368.783386,146.985245 384.198975,146.978851 
z"/>
<path fill="#61AB2E" opacity="1.000000" stroke="none" 
	d="
M437.198669,146.982437 
	C437.198669,148.767136 437.198669,150.551819 437.198669,152.973267 
	C421.978088,152.973267 406.969543,152.973267 391.500183,152.443756 
	C391.031067,149.944931 391.022797,147.975647 391.482269,146.003662 
	C400.428497,146.000031 408.909393,145.874252 417.384705,146.038269 
	C423.992981,146.166138 430.594269,146.654358 437.198669,146.982437 
z"/>
<path fill="#6CB336" opacity="1.000000" stroke="none" 
	d="
M437.309570,146.544159 
	C430.594269,146.654358 423.992981,146.166138 417.384705,146.038269 
	C408.909393,145.874252 400.428497,146.000031 391.474182,145.644318 
	C390.701508,144.202530 390.404663,143.117371 390.107849,142.032227 
	C390.472992,141.382111 390.838165,140.731979 391.827942,139.997803 
	C392.975159,139.292343 393.497803,138.670929 394.020416,138.049530 
	C394.378326,137.681747 394.736237,137.313965 395.689026,136.921280 
	C396.867950,136.347870 397.452026,135.799362 398.036102,135.250854 
	C398.476654,134.820770 398.917236,134.390686 399.723083,134.229553 
	C403.485382,135.363129 406.882355,136.227768 410.279327,137.092407 
	C409.886932,137.560181 409.494537,138.027969 408.594147,138.782501 
	C407.829742,139.835663 407.573364,140.602097 407.316956,141.368530 
	C407.845520,141.334549 408.374023,141.300568 408.902557,141.266602 
	C418.119263,141.266602 427.335968,141.266602 437.110809,141.266602 
	C437.220490,142.980759 437.320465,144.543335 437.309570,146.544159 
z"/>
<path fill="#060606" opacity="1.000000" stroke="none" 
	d="
M273.981140,151.229462 
	C275.380707,151.210190 276.780243,151.190918 278.755127,151.395767 
	C279.924530,151.147736 280.518585,150.675583 281.112671,150.203445 
	C281.837128,149.804214 282.561584,149.404968 283.875183,149.112442 
	C284.669189,150.319351 284.874054,151.419525 285.078949,152.519714 
	C277.697601,152.791397 270.316254,153.063095 262.536804,152.875427 
	C262.658295,150.692154 263.592346,148.976501 263.626740,147.242981 
	C263.787933,139.111664 263.742676,130.974991 263.651550,122.841560 
	C263.640289,121.836342 262.914307,120.839127 262.519531,119.838211 
	C262.338409,119.492722 262.157288,119.147232 262.135986,118.162247 
	C269.555115,117.332077 276.814362,117.141403 284.073639,116.950722 
	C284.419525,117.365852 284.765411,117.780983 285.111298,118.196121 
	C284.474274,118.494850 283.821594,119.078262 283.202911,119.044144 
	C280.166504,118.876709 277.139130,118.545082 273.271576,118.146286 
	C271.719635,118.350685 270.397980,118.653008 270.381744,119.013962 
	C270.174377,123.631447 270.034515,128.263107 270.257782,132.872742 
	C270.281921,133.370956 272.685150,133.753952 273.984833,134.190384 
	C275.059784,134.173340 276.134766,134.156296 277.768127,134.352905 
	C278.926208,134.121460 279.525879,133.676331 280.125549,133.231201 
	C280.811462,134.582092 281.497375,135.932999 282.255707,137.426514 
	C278.627441,136.936737 276.362030,136.630920 273.286438,136.184998 
	C270.011292,135.902344 268.893829,136.933456 269.046570,139.524277 
	C269.210297,142.301300 269.102783,145.095688 269.077087,147.882156 
	C269.044067,151.466797 270.641632,152.611313 273.981140,151.229462 
z"/>
<path fill="#6CB336" opacity="1.000000" stroke="none" 
	d="
M384.309967,146.541000 
	C368.783386,146.985245 353.367798,146.991638 337.530640,147.002716 
	C337.129242,144.639008 337.149384,142.270645 337.649780,139.388092 
	C342.435150,138.581085 346.740265,138.288254 351.045410,137.995422 
	C351.073700,141.116013 353.183472,141.079132 355.474762,141.065674 
	C364.837646,141.010712 374.201019,141.042770 384.099152,141.042770 
	C384.222595,142.983749 384.321777,144.543442 384.309967,146.541000 
z"/>
<path fill="#58A32E" opacity="1.000000" stroke="none" 
	d="
M61.079170,122.925758 
	C59.191673,125.915352 57.304176,128.904953 55.106789,132.099060 
	C51.481876,126.272835 48.166851,120.242104 44.938965,113.428177 
	C46.430523,112.096382 47.813549,111.150551 49.243351,111.073570 
	C53.546387,110.841904 57.867645,110.948616 62.460777,111.105362 
	C63.321999,111.586197 63.904236,111.885017 64.446579,112.564598 
	C63.297516,116.272163 62.188343,119.598961 61.079170,122.925758 
z"/>
<path fill="#95D246" opacity="1.000000" stroke="none" 
	d="
M109.001732,63.000240 
	C110.557076,62.000797 112.034454,60.315498 113.682129,60.128185 
	C119.010201,59.522465 124.400841,59.467205 130.138855,59.127960 
	C133.067108,62.785622 135.623901,66.515182 137.735596,70.618713 
	C131.155807,70.999741 125.021111,71.006805 118.600891,70.860321 
	C115.210823,68.137924 112.106277,65.569084 109.001732,63.000240 
z"/>
<path fill="#284D76" opacity="1.000000" stroke="none" 
	d="
M71.571564,44.397457 
	C71.269897,47.353893 71.122536,49.907448 71.401001,52.522518 
	C72.226631,53.499290 72.626442,54.414543 72.678909,55.778267 
	C70.982933,56.872807 69.643356,57.538685 68.284096,58.161594 
	C61.630833,61.210571 61.630665,61.205524 58.499989,55.922699 
	C58.442734,55.826092 58.187771,55.846649 58.025055,55.812538 
	C56.772480,54.374619 55.736412,52.044506 54.223972,51.677490 
	C50.660000,50.812653 46.868908,50.883774 41.663689,50.451077 
	C47.603340,46.905258 52.849117,46.527454 57.637184,48.669109 
	C62.982777,51.060139 65.460464,49.579971 67.378456,44.563534 
	C68.787956,40.877052 71.304276,37.976913 75.682274,37.549267 
	C74.338036,39.739132 73.031944,41.866852 71.571564,44.397457 
z"/>
<path fill="#58A32E" opacity="1.000000" stroke="none" 
	d="
M129.413666,131.995087 
	C126.912674,129.035980 124.670876,125.848793 122.293289,121.982834 
	C121.370583,118.893402 120.583656,116.482742 120.196533,113.909744 
	C126.852173,113.525558 133.108017,113.303696 139.363861,113.081833 
	C136.133530,119.310211 132.903198,125.538597 129.413666,131.995087 
z"/>
<path fill="#64AB35" opacity="1.000000" stroke="none" 
	d="
M139.606339,112.845062 
	C133.108017,113.303696 126.852173,113.525558 119.960892,113.819862 
	C119.164131,113.604271 119.002808,113.316231 118.841492,113.028191 
	C122.464096,108.891495 126.086700,104.754807 130.117203,100.201874 
	C130.999741,99.476929 131.474380,99.168228 132.135498,99.211739 
	C135.797348,100.032928 139.272705,100.501915 142.748077,100.970894 
	C142.745178,101.425446 142.742279,101.880005 142.328598,102.730560 
	C141.869507,104.060295 141.821198,104.994034 141.772873,105.927765 
	C141.131531,108.154602 140.490173,110.381447 139.606339,112.845062 
z"/>
<path fill="#89C941" opacity="1.000000" stroke="none" 
	d="
M118.886414,71.013870 
	C125.021111,71.006805 131.155807,70.999741 137.778046,70.981934 
	C139.573730,73.831856 140.881897,76.692520 142.452423,80.042786 
	C142.115952,80.965843 141.517105,81.399315 140.611435,81.569672 
	C135.130142,81.225792 129.955673,81.145020 124.502762,80.879562 
	C123.121078,78.707428 122.017853,76.719994 120.884453,74.401154 
	C120.206535,73.566948 119.558777,73.064148 118.898788,72.303406 
	C118.886513,71.701591 118.886459,71.357735 118.886414,71.013870 
z"/>
<path fill="#97D546" opacity="1.000000" stroke="none" 
	d="
M57.701622,55.953041 
	C58.187771,55.846649 58.442734,55.826092 58.499989,55.922699 
	C61.630665,61.205524 61.630833,61.210571 68.284096,58.161594 
	C69.643356,57.538685 70.982933,56.872807 72.658264,56.097610 
	C74.948334,57.413109 76.911705,58.857735 78.624481,60.792824 
	C74.919022,63.532433 71.464157,65.781570 67.938637,67.655746 
	C66.156509,66.526428 64.481499,65.241623 62.726490,65.121048 
	C58.172733,64.808205 53.583786,65.007561 49.008884,65.002487 
	C51.798653,62.032837 54.588421,59.063190 57.701622,55.953041 
z"/>
<path fill="#89C941" opacity="1.000000" stroke="none" 
	d="
M42.016037,81.005463 
	C42.884678,78.188995 43.753323,75.372528 45.325165,72.282074 
	C51.695850,72.673080 57.363338,73.338066 62.963100,74.346504 
	C61.627220,77.130791 60.359070,79.571609 58.670334,81.960083 
	C52.838512,81.606979 47.427273,81.306221 42.016037,81.005463 
z"/>
<path fill="#0A0A0A" opacity="1.000000" stroke="none" 
	d="
M313.894440,141.500732 
	C313.795471,138.339478 309.493652,135.817551 313.033325,132.171875 
	C313.018372,131.501495 313.126648,131.251404 313.855591,131.112000 
	C314.890961,131.442429 315.442749,131.721481 316.177917,132.282379 
	C321.573456,139.458252 326.785553,146.352325 331.997620,153.246399 
	C330.604889,153.236160 329.212158,153.225937 327.196167,152.852310 
	C325.923828,152.473495 325.274719,152.458084 324.625610,152.442657 
	C322.767029,151.263336 320.908478,150.084015 318.995056,148.251129 
	C318.353455,147.044571 317.766663,146.491577 317.179871,145.938568 
	C316.793365,145.531540 316.406830,145.124512 315.996521,144.118622 
	C315.417542,143.002502 314.862366,142.485229 314.307159,141.967941 
	C314.307159,141.967941 313.917694,141.728210 313.894440,141.500732 
z"/>
<path fill="#80C240" opacity="1.000000" stroke="none" 
	d="
M41.809101,81.317825 
	C47.427273,81.306221 52.838512,81.606979 58.646446,82.366661 
	C58.623245,85.230148 58.203346,87.634697 57.329666,90.028000 
	C51.493729,90.016762 46.111568,90.016762 40.729408,90.016769 
	C41.020329,87.221245 41.311249,84.425720 41.809101,81.317825 
z"/>
<path fill="#80C240" opacity="1.000000" stroke="none" 
	d="
M400.711792,132.903580 
	C404.142365,129.949097 407.572937,126.994606 411.725037,123.968246 
	C416.473358,124.069832 420.938843,122.116173 424.136963,126.307480 
	C420.382568,129.270828 416.628204,132.234177 412.304016,134.929962 
	C408.060089,134.076126 404.385956,133.489853 400.711792,132.903580 
z"/>
<path fill="#ADE065" opacity="1.000000" stroke="none" 
	d="
M384.470642,108.738754 
	C381.273041,108.359634 378.284546,107.162064 375.261200,107.066399 
	C366.653748,106.794067 358.030243,106.867188 349.416870,107.018646 
	C345.647797,107.084923 341.887878,107.672592 337.720703,108.047729 
	C336.506287,105.291000 337.464752,104.084564 340.440125,104.099129 
	C354.045227,104.165726 367.651489,104.196800 381.255890,104.077652 
	C384.651093,104.047920 385.238159,105.634949 384.470642,108.738754 
z"/>
<path fill="#30C6DB" opacity="1.000000" stroke="none" 
	d="
M81.854889,145.763046 
	C85.799706,142.490509 89.744514,139.217972 93.983955,135.840988 
	C96.760223,138.954315 99.241867,142.172104 101.805435,146.072433 
	C99.919731,147.503723 97.952095,148.252457 95.709900,148.794983 
	C92.407059,143.768890 89.995598,146.761963 87.181747,149.073486 
	C85.166443,147.877640 83.510666,146.820343 81.854889,145.763046 
z"/>
<path fill="#95D246" opacity="1.000000" stroke="none" 
	d="
M63.030827,74.003044 
	C57.363338,73.338066 51.695850,72.673080 45.571758,72.009567 
	C46.230885,69.804794 47.346615,67.598564 48.735615,65.197411 
	C53.583786,65.007561 58.172733,64.808205 62.726490,65.121048 
	C64.481499,65.241623 66.156509,66.526428 67.794876,67.949280 
	C66.158119,70.412872 64.594475,72.207954 63.030827,74.003044 
z"/>
<path fill="#646464" opacity="1.000000" stroke="none" 
	d="
M332.257751,153.452881 
	C326.785553,146.352325 321.573456,139.458252 316.303406,131.967743 
	C320.112885,126.707985 323.980286,122.044685 327.882111,117.339890 
	C326.137177,117.193924 324.517059,117.058403 322.896973,116.922882 
	C326.093628,116.634232 329.290253,116.345581 331.942688,116.106071 
	C327.908813,120.675438 323.779266,125.267921 319.788757,129.978210 
	C319.273224,130.586731 319.012756,132.172775 319.418335,132.684769 
	C324.641785,139.278778 330.003845,145.763123 335.354736,152.255493 
	C335.534271,152.473297 335.965515,152.483643 336.667908,152.513458 
	C337.056427,152.436234 337.036255,152.394028 337.032288,152.371674 
	C335.524811,152.785980 334.021362,153.222656 332.257751,153.452881 
z"/>
<path fill="#2FD2DC" opacity="1.000000" stroke="none" 
	d="
M62.922203,141.947174 
	C63.291897,141.232620 63.661591,140.518082 64.450302,139.478546 
	C66.967720,138.242203 69.417976,137.749496 71.096596,136.338669 
	C75.603203,132.551010 78.805870,133.923691 81.647552,138.257980 
	C77.653412,141.121323 73.659271,143.984650 69.140137,146.570709 
	C66.440163,145.866470 64.265182,145.439499 62.090195,145.012527 
	C61.913006,144.579681 61.735817,144.146851 61.902958,143.273636 
	C62.472256,142.537903 62.697227,142.242538 62.922203,141.947174 
z"/>
<path fill="#8FCD4A" opacity="1.000000" stroke="none" 
	d="
M424.473328,126.213028 
	C420.938843,122.116173 416.473358,124.069832 412.041504,123.874153 
	C413.296875,122.352921 414.957397,120.853912 417.248474,119.169220 
	C418.572845,117.993095 419.266602,117.002647 419.960388,116.012207 
	C424.790558,116.028694 429.620728,116.045181 434.952332,116.102539 
	C431.905731,119.468475 428.357697,122.793526 424.473328,126.213028 
z"/>
<path fill="#64AB35" opacity="1.000000" stroke="none" 
	d="
M62.181793,110.923347 
	C57.867645,110.948616 53.546387,110.841904 49.243351,111.073570 
	C47.813549,111.150551 46.430523,112.096382 44.916599,113.082527 
	C43.839607,110.939278 42.872120,108.358490 42.353195,105.337936 
	C48.227718,104.595940 53.653683,104.293701 59.235695,104.295509 
	C60.321758,106.707489 61.251778,108.815422 62.181793,110.923347 
z"/>
<path fill="#45AAE3" opacity="1.000000" stroke="none" 
	d="
M117.384842,153.147888 
	C116.588188,154.782059 115.791527,156.416260 114.630142,158.497192 
	C113.899506,159.649445 113.533607,160.354965 113.167709,161.060486 
	C113.167709,161.060486 113.043037,161.078110 112.759956,161.245575 
	C111.315948,162.654816 110.155014,163.896591 108.994095,165.138367 
	C108.994095,165.138367 108.970825,165.032867 108.790848,164.722931 
	C105.556473,160.669327 102.502075,156.925674 99.836411,153.035706 
	C102.511391,152.937790 104.799347,153.056976 107.083099,153.001831 
	C108.078979,152.977768 109.066223,152.596405 110.057388,152.377335 
	C110.471230,151.913177 110.885078,151.449036 111.801132,151.158798 
	C113.997162,151.937759 115.691002,152.542816 117.384842,153.147888 
z"/>
<path fill="#73B935" opacity="1.000000" stroke="none" 
	d="
M40.568726,90.396851 
	C46.111568,90.016762 51.493729,90.016762 57.379951,90.460716 
	C57.848026,92.942009 57.812042,94.979332 57.322319,97.012375 
	C51.530785,97.021744 46.192989,97.035385 40.855190,97.049026 
	C40.706142,94.958328 40.557091,92.867630 40.568726,90.396851 
z"/>
<path fill="#6CB336" opacity="1.000000" stroke="none" 
	d="
M40.778107,97.462830 
	C46.192989,97.035385 51.530785,97.021744 57.390446,97.327477 
	C58.301422,99.761726 58.690533,101.876587 59.079647,103.991455 
	C53.653683,104.293701 48.227718,104.595940 42.384460,104.950302 
	C41.545116,102.627167 41.123070,100.251907 40.778107,97.462830 
z"/>
<path fill="#74B541" opacity="1.000000" stroke="none" 
	d="
M142.982742,100.640945 
	C139.272705,100.501915 135.797348,100.032928 132.221771,98.889946 
	C135.526794,93.892975 138.932053,89.570000 142.502045,85.244545 
	C142.666809,85.242058 142.973938,85.361565 142.973938,85.361565 
	C143.055084,90.344704 143.136246,95.327850 142.982742,100.640945 
z"/>
<path fill="#92CD51" opacity="1.000000" stroke="none" 
	d="
M351.266815,122.150352 
	C348.995667,123.348076 346.822815,124.439873 344.523376,124.902252 
	C342.499115,125.309296 340.333313,125.012520 337.794403,125.041946 
	C337.282532,122.659286 337.206268,120.261261 337.239746,117.425850 
	C341.690674,117.010353 346.031830,117.032234 350.863129,117.091583 
	C351.338867,118.676308 351.324493,120.223557 351.266815,122.150352 
z"/>
<path fill="#ADE065" opacity="1.000000" stroke="none" 
	d="
M436.511108,105.736206 
	C429.148407,106.077942 421.854828,106.020737 414.561218,105.999947 
	C407.331909,105.979340 400.102509,105.995438 393.140930,105.995438 
	C392.206390,108.767761 391.700836,110.267456 390.888855,111.922058 
	C389.512299,104.128265 389.512299,104.125816 396.998474,104.124405 
	C408.560486,104.122223 420.122925,104.075607 431.684021,104.178436 
	C433.319427,104.192978 434.948334,104.943398 436.511108,105.736206 
z"/>
<path fill="#45AAE3" opacity="1.000000" stroke="none" 
	d="
M68.623245,156.307205 
	C70.498726,154.314484 72.380470,152.672852 74.691833,151.348328 
	C78.005806,152.427963 80.890175,153.190506 83.688805,154.263763 
	C82.041550,156.372345 80.480034,158.170242 78.554298,159.805298 
	C75.437729,159.438248 72.685379,159.234039 69.933029,159.029831 
	C69.498520,158.239319 69.064018,157.448822 68.623245,156.307205 
z"/>
<path fill="#7DBD45" opacity="1.000000" stroke="none" 
	d="
M351.149475,137.648880 
	C346.740265,138.288254 342.435150,138.581085 337.746033,138.954895 
	C337.287262,137.300095 337.212463,135.564316 337.250977,133.406509 
	C341.844543,133.231964 346.324768,133.479462 351.035095,134.077469 
	C351.261261,135.386093 351.257385,136.344223 351.149475,137.648880 
z"/>
<path fill="#4F4F4F" opacity="1.000000" stroke="none" 
	d="
M197.075989,153.343536 
	C196.144821,150.857040 194.965973,148.558533 194.893219,146.225540 
	C194.649307,138.405121 194.706665,130.570312 194.880188,122.746155 
	C194.914291,121.208435 195.980881,119.693619 197.006744,118.245438 
	C197.242111,128.609589 196.992065,138.896194 196.926376,149.183990 
	C196.920425,150.116486 198.232758,151.003693 198.642624,152.028076 
	C198.753510,152.305206 197.800018,153.008209 197.075989,153.343536 
z"/>
<path fill="#4F4F4F" opacity="1.000000" stroke="none" 
	d="
M262.382202,120.299164 
	C262.914307,120.839127 263.640289,121.836342 263.651550,122.841560 
	C263.742676,130.974991 263.787933,139.111664 263.626740,147.242981 
	C263.592346,148.976501 262.658295,150.692154 262.073029,152.805771 
	C261.105133,153.310333 260.202972,153.425156 260.085999,153.440048 
	C260.798065,150.485580 261.984741,147.624435 262.091400,144.723587 
	C262.384735,136.744675 262.225220,128.749100 262.382202,120.299164 
z"/>
<path fill="#646464" opacity="1.000000" stroke="none" 
	d="
M273.651123,150.918457 
	C270.641632,152.611313 269.044067,151.466797 269.077087,147.882156 
	C269.102783,145.095688 269.210297,142.301300 269.046570,139.524277 
	C268.893829,136.933456 270.011292,135.902344 272.890503,136.183167 
	C273.310211,141.083450 273.315674,145.845444 273.651123,150.918457 
z"/>
<path fill="#1E1E1E" opacity="1.000000" stroke="none" 
	d="
M322.548737,117.017517 
	C324.517059,117.058403 326.137177,117.193924 327.882111,117.339890 
	C323.980286,122.044685 320.112885,126.707985 316.119995,131.685913 
	C315.442749,131.721481 314.890961,131.442429 314.054871,131.040527 
	C316.580505,126.315834 319.390503,121.713997 322.548737,117.017517 
z"/>
<path fill="#4F4F4F" opacity="1.000000" stroke="none" 
	d="
M185.957550,118.597382 
	C186.401855,119.251434 187.746628,120.283325 187.755386,121.326439 
	C187.831177,130.343842 187.666458,139.363235 187.297302,148.688736 
	C186.916656,140.773239 186.835205,132.550629 186.689346,124.329178 
	C186.657684,122.544151 186.394913,120.763229 185.957550,118.597382 
z"/>
<path fill="#4F4F4F" opacity="1.000000" stroke="none" 
	d="
M283.940826,116.596542 
	C276.814362,117.141403 269.555115,117.332077 262.036926,117.886757 
	C260.813599,117.804077 259.849152,117.357399 258.884705,116.910721 
	C258.939056,116.687935 258.993439,116.465149 259.047791,116.242363 
	C267.301208,116.242363 275.554596,116.242363 283.940826,116.596542 
z"/>
<path fill="#646464" opacity="1.000000" stroke="none" 
	d="
M273.650940,133.884705 
	C272.685150,133.753952 270.281921,133.370956 270.257782,132.872742 
	C270.034515,128.263107 270.174377,123.631447 270.381744,119.013962 
	C270.397980,118.653008 271.719635,118.350685 272.851959,118.148376 
	C273.285248,123.376770 273.301147,128.477905 273.650940,133.884705 
z"/>
<path fill="#5AC7E6" opacity="1.000000" stroke="none" 
	d="
M109.699562,152.290024 
	C109.066223,152.596405 108.078979,152.977768 107.083099,153.001831 
	C104.799347,153.056976 102.511391,152.937790 99.558586,152.922882 
	C97.922844,151.637970 96.953651,150.319580 95.984459,149.001190 
	C97.952095,148.252457 99.919731,147.503723 101.943733,146.379929 
	C104.447311,148.070816 106.894524,150.136765 109.699562,152.290024 
z"/>
<path fill="#5AC7E6" opacity="1.000000" stroke="none" 
	d="
M117.669403,152.993378 
	C115.691002,152.542816 113.997162,151.937759 112.080917,151.021332 
	C113.654663,147.245407 116.197128,145.357330 121.090240,146.885971 
	C119.981987,148.989517 118.967972,150.914185 117.669403,152.993378 
z"/>
<path fill="#22447E" opacity="1.000000" stroke="none" 
	d="
M143.192291,85.069336 
	C142.973938,85.361565 142.666809,85.242058 142.196854,85.026070 
	C141.457336,84.134872 141.187790,83.459671 140.923950,82.546539 
	C140.929688,82.308624 140.918274,81.832794 140.918274,81.832794 
	C141.517105,81.399315 142.115952,80.965843 142.714645,80.255142 
	C144.393753,77.811203 146.073029,75.644508 148.472229,73.736397 
	C149.526184,74.246765 149.860184,74.498550 150.194183,74.750343 
	C147.933014,78.092598 145.671829,81.434853 143.192291,85.069336 
z"/>
<path fill="#61A9E7" opacity="1.000000" stroke="none" 
	d="
M69.978546,159.379135 
	C72.685379,159.234039 75.437729,159.438248 78.465263,160.116241 
	C78.148735,161.728668 77.557022,162.867279 76.965317,164.005875 
	C76.965309,164.005875 77.011703,164.013962 76.726860,164.056976 
	C76.195335,164.406738 75.948647,164.713486 75.701958,165.020248 
	C75.323776,165.315002 74.945595,165.609756 74.372704,166.044266 
	C72.793358,164.032150 71.408707,161.880295 69.978546,159.379135 
z"/>
<path fill="#4F4F4F" opacity="1.000000" stroke="none" 
	d="
M285.121094,152.790543 
	C284.874054,151.419525 284.669189,150.319351 284.187103,149.075104 
	C284.929810,147.336655 285.949677,145.742279 287.036713,144.042953 
	C289.598450,147.452332 288.755676,150.955215 285.121094,152.790543 
z"/>
<path fill="#7FBE4C" opacity="1.000000" stroke="none" 
	d="
M400.508942,132.951309 
	C404.385956,133.489853 408.060089,134.076126 411.959503,135.004761 
	C411.730072,135.895142 411.275391,136.443161 410.550018,137.041809 
	C406.882355,136.227768 403.485382,135.363129 400.000244,134.094086 
	C399.897980,133.376495 400.029297,133.146286 400.508942,132.951309 
z"/>
<path fill="#4F4F4F" opacity="1.000000" stroke="none" 
	d="
M205.157776,119.237930 
	C205.374405,118.572044 205.869476,118.054344 206.562744,117.329391 
	C204.898239,117.044502 203.672119,116.834648 202.213837,116.395081 
	C202.767853,115.998161 203.600555,115.579735 204.330719,115.714966 
	C205.955627,116.015923 207.529221,116.593887 209.123734,117.058945 
	C208.615097,118.709106 208.106445,120.359276 207.382935,122.706490 
	C206.367905,120.975235 205.902054,120.180664 205.157776,119.237930 
z"/>
<path fill="#3AB7DE" opacity="1.000000" stroke="none" 
	d="
M62.142479,145.400208 
	C64.265182,145.439499 66.440163,145.866470 68.795372,146.616989 
	C67.492508,147.994934 66.009422,149.049316 64.239006,150.138428 
	C63.366039,148.711380 62.780403,147.249649 62.142479,145.400208 
z"/>
<path fill="#7FBE4C" opacity="1.000000" stroke="none" 
	d="
M389.894836,142.355286 
	C390.404663,143.117371 390.701508,144.202530 391.006409,145.647003 
	C391.022797,147.975647 391.031067,149.944931 391.047058,152.332092 
	C390.597137,149.392746 390.139496,146.035538 389.894836,142.355286 
z"/>
<path fill="#4F4F4F" opacity="1.000000" stroke="none" 
	d="
M174.075516,119.240181 
	C175.723129,118.685211 177.249481,118.433403 179.148895,118.306931 
	C177.815598,119.652443 176.109222,120.872627 174.426056,122.076225 
	C174.276764,121.274734 174.115509,120.409042 174.075516,119.240181 
z"/>
<path fill="#284D76" opacity="1.000000" stroke="none" 
	d="
M149.915924,65.418045 
	C153.283615,64.668839 153.009583,67.227013 153.276642,69.938629 
	C153.377899,70.749779 153.282791,71.002998 152.238617,71.114349 
	C150.956055,70.936386 150.496765,70.859612 150.037460,70.782837 
	C150.035614,69.128510 150.033768,67.474174 149.915924,65.418045 
z"/>
<path fill="#F7FBF7" opacity="1.000000" stroke="none" 
	d="
M109.063889,165.467316 
	C110.155014,163.896591 111.315948,162.654816 112.780182,161.305206 
	C112.143173,163.076431 111.202858,164.955490 109.985748,166.920410 
	C109.517197,166.602905 109.325447,166.199585 109.063889,165.467316 
z"/>
<path fill="#22447E" opacity="1.000000" stroke="none" 
	d="
M149.821777,70.903801 
	C150.496765,70.859612 150.956055,70.936386 152.099213,71.160614 
	C152.108078,72.378906 151.433105,73.449745 150.476166,74.635460 
	C149.860184,74.498550 149.526184,74.246765 148.755768,73.542862 
	C148.748260,72.402077 149.177170,71.713417 149.821777,70.903801 
z"/>
<path fill="#ADE065" opacity="1.000000" stroke="none" 
	d="
M419.661133,116.004669 
	C419.266602,117.002647 418.572845,117.993095 417.559448,119.038666 
	C417.249634,118.531044 417.259430,117.968277 417.216553,116.985168 
	C417.896545,116.375587 418.629211,116.186363 419.661133,116.004669 
z"/>
<path fill="#4F4F4F" opacity="1.000000" stroke="none" 
	d="
M185.425476,151.631851 
	C185.780762,151.881058 185.836182,152.145920 185.959717,152.810913 
	C185.214676,153.140945 184.401520,153.070847 183.588379,153.000748 
	C184.100784,152.549667 184.613190,152.098572 185.425476,151.631851 
z"/>
<path fill="#ADE065" opacity="1.000000" stroke="none" 
	d="
M382.215637,116.690262 
	C382.506500,116.046623 383.080658,115.539856 383.970459,115.003159 
	C383.690369,115.591187 383.094666,116.209152 382.215637,116.690262 
z"/>
<path fill="#7FBE4C" opacity="1.000000" stroke="none" 
	d="
M408.793396,140.891785 
	C408.374023,141.300568 407.845520,141.334549 407.316956,141.368530 
	C407.573364,140.602097 407.829742,139.835663 408.389282,139.013290 
	C408.689728,139.477234 408.687012,139.997116 408.793396,140.891785 
z"/>
<path fill="#74B541" opacity="1.000000" stroke="none" 
	d="
M141.994690,105.694672 
	C141.821198,104.994034 141.869507,104.060295 142.186157,103.043961 
	C142.375168,103.794762 142.295837,104.628166 141.994690,105.694672 
z"/>
<path fill="#1E1E1E" opacity="1.000000" stroke="none" 
	d="
M317.207764,146.243286 
	C317.766663,146.491577 318.353455,147.044571 318.911682,147.931885 
	C318.333984,147.693451 317.784821,147.120712 317.207764,146.243286 
z"/>
<path fill="#7FBE4C" opacity="1.000000" stroke="none" 
	d="
M393.710175,138.083893 
	C393.497803,138.670929 392.975159,139.292343 392.111633,139.903229 
	C392.313812,139.301224 392.856873,138.709763 393.710175,138.083893 
z"/>
<path fill="#7FBE4C" opacity="1.000000" stroke="none" 
	d="
M397.726837,135.280945 
	C397.452026,135.799362 396.867950,136.347870 395.944763,136.856110 
	C396.209595,136.314255 396.813599,135.812637 397.726837,135.280945 
z"/>
<path fill="#284D76" opacity="1.000000" stroke="none" 
	d="
M155.235031,68.130905 
	C155.615829,68.162003 156.280426,68.180794 157.004242,68.482941 
	C156.548599,68.550392 156.033707,68.334496 155.235031,68.130905 
z"/>
<path fill="#646464" opacity="1.000000" stroke="none" 
	d="
M280.821259,150.263306 
	C280.518585,150.675583 279.924530,151.147736 279.175079,151.403305 
	C279.523071,150.898880 280.026459,150.611038 280.821259,150.263306 
z"/>
<path fill="#646464" opacity="1.000000" stroke="none" 
	d="
M279.854645,133.351654 
	C279.525879,133.676331 278.926208,134.121460 278.171326,134.359222 
	C278.538666,133.925262 279.061218,133.698685 279.854645,133.351654 
z"/>
<path fill="#1E1E1E" opacity="1.000000" stroke="none" 
	d="
M314.325073,142.258942 
	C314.862366,142.485229 315.417542,143.002502 315.954102,143.834747 
	C315.404633,143.616455 314.873840,143.083206 314.325073,142.258942 
z"/>
<path fill="#ADE065" opacity="1.000000" stroke="none" 
	d="
M390.474792,115.202835 
	C391.052399,115.296181 391.514221,115.679985 392.028564,116.292595 
	C391.507019,116.178703 390.932983,115.835999 390.474792,115.202835 
z"/>
<path fill="#646464" opacity="1.000000" stroke="none" 
	d="
M324.718445,152.669403 
	C325.274719,152.458084 325.923828,152.473495 326.788025,152.757477 
	C326.272461,152.982758 325.541870,152.939453 324.718445,152.669403 
z"/>
<path fill="#4F4F4F" opacity="1.000000" stroke="none" 
	d="
M179.817780,115.982979 
	C179.400757,116.234978 178.824646,116.331284 178.121674,116.201279 
	C178.549438,115.925743 179.104080,115.876518 179.817780,115.982979 
z"/>
<path fill="#F7FBF7" opacity="1.000000" stroke="none" 
	d="
M113.489540,160.980209 
	C113.533607,160.354965 113.899506,159.649445 114.577606,158.832184 
	C114.530334,159.446930 114.170853,160.173431 113.489540,160.980209 
z"/>
<path fill="#284D76" opacity="1.000000" stroke="none" 
	d="
M154.704224,61.724594 
	C154.323975,62.127239 153.644455,62.500061 152.640869,62.816849 
	C153.012848,62.405472 153.708878,62.050121 154.704224,61.724594 
z"/>
<path fill="#7DBD45" opacity="1.000000" stroke="none" 
	d="
M337.295715,131.281479 
	C337.658752,131.243683 337.728943,131.475677 337.478577,131.848114 
	C337.370483,131.936447 337.215424,131.499130 337.295715,131.281479 
z"/>
<path fill="#3AB7DE" opacity="1.000000" stroke="none" 
	d="
M62.549393,142.038391 
	C62.697227,142.242538 62.472256,142.537903 61.971443,142.925385 
	C61.695602,143.017487 61.537807,142.710281 61.494617,142.545792 
	C61.693146,142.297394 61.934868,142.213501 62.549393,142.038391 
z"/>
<path fill="#C7E266" opacity="1.000000" stroke="none" 
	d="
M59.235695,104.295509 
	C58.690533,101.876587 58.301422,99.761726 57.844185,97.331757 
	C57.812042,94.979332 57.848026,92.942009 57.833729,90.471970 
	C58.203346,87.634697 58.623245,85.230148 59.067032,82.419014 
	C60.359070,79.571609 61.627220,77.130791 62.963100,74.346504 
	C64.594475,72.207954 66.158119,70.412872 67.865540,68.324249 
	C71.464157,65.781570 74.919022,63.532433 78.684738,61.138210 
	C88.996010,57.951290 98.803871,57.825493 108.634171,62.963135 
	C112.106277,65.569084 115.210823,68.137924 118.600891,70.860321 
	C118.886459,71.357735 118.886513,71.701591 118.526917,72.379272 
	C115.999756,73.843475 113.832245,74.973862 111.447525,76.217537 
	C109.044739,74.266556 106.499237,72.199692 103.110054,69.447777 
	C104.934990,74.285645 106.206413,77.656174 107.477844,81.026703 
	C107.078873,81.404938 106.679901,81.783173 106.280922,82.161400 
	C109.307297,82.604904 112.333664,83.048401 116.183044,83.612503 
	C113.516167,77.224091 117.313950,76.047432 120.914619,74.732552 
	C122.017853,76.719994 123.121078,78.707428 124.554382,81.291191 
	C125.331161,84.610794 125.777878,87.334076 126.169250,90.486671 
	C126.112312,92.942825 126.110703,94.969666 126.082489,97.344002 
	C126.097984,97.919991 126.140083,98.148491 126.196259,98.552818 
	C126.210327,98.728653 126.356155,99.049889 126.356155,99.049896 
	C123.437515,102.018051 120.518875,104.986206 117.116508,107.752853 
	C115.129875,104.404449 113.820847,101.141266 112.035263,98.163887 
	C111.244202,96.844826 109.316978,95.081963 108.200203,95.270081 
	C101.988976,96.316353 99.579819,92.729866 97.872475,87.803024 
	C97.222618,85.927734 96.472435,84.042290 95.449013,82.354935 
	C94.556992,80.884232 93.216377,79.685608 92.073975,78.366768 
	C90.897324,79.631729 89.329453,80.707306 88.609978,82.193581 
	C84.994720,89.661911 81.773193,97.325623 77.994934,104.706512 
	C77.168159,106.321609 74.590927,108.073669 72.894890,108.001381 
	C69.053482,107.837662 66.628952,109.469681 64.486473,112.183830 
	C63.904236,111.885017 63.321999,111.586197 62.460777,111.105362 
	C61.251778,108.815422 60.321758,106.707489 59.235695,104.295509 
z"/>
<path fill="#FAFDF6" opacity="1.000000" stroke="none" 
	d="
M64.446579,112.564598 
	C66.628952,109.469681 69.053482,107.837662 72.894890,108.001381 
	C74.590927,108.073669 77.168159,106.321609 77.994934,104.706512 
	C81.773193,97.325623 84.994720,89.661911 88.609978,82.193581 
	C89.329453,80.707306 90.897324,79.631729 92.073975,78.366768 
	C93.216377,79.685608 94.556992,80.884232 95.449013,82.354935 
	C96.472435,84.042290 97.222618,85.927734 97.872475,87.803024 
	C99.579819,92.729866 101.988976,96.316353 108.200203,95.270081 
	C109.316978,95.081963 111.244202,96.844826 112.035263,98.163887 
	C113.820847,101.141266 115.129875,104.404449 116.793961,107.879471 
	C115.963036,109.239487 114.970940,110.271393 113.684013,111.413910 
	C110.355591,109.499847 106.830795,107.929985 104.421097,105.327591 
	C101.804329,102.501572 100.174919,102.437172 97.547913,104.991394 
	C92.292305,110.101364 92.262535,109.980438 88.816452,103.889046 
	C88.160461,102.729500 86.987846,101.542503 85.796860,101.152832 
	C85.274551,100.981934 83.932220,102.670998 83.276443,103.713211 
	C82.399445,105.106979 81.704666,106.648796 81.147545,108.204353 
	C79.296562,113.372543 76.979996,116.958519 70.185829,116.608253 
	C67.503532,116.469978 64.593170,120.755341 61.432915,122.976089 
	C62.188343,119.598961 63.297516,116.272163 64.446579,112.564598 
z"/>
<path fill="#F1FBF7" opacity="1.000000" stroke="none" 
	d="
M81.940582,138.178650 
	C78.805870,133.923691 75.603203,132.551010 71.096596,136.338669 
	C69.417976,137.749496 66.967720,138.242203 64.496780,139.176407 
	C69.754524,132.255890 75.376678,125.305908 81.019707,118.372910 
	C82.894417,116.069656 84.647873,116.585190 86.347610,118.651932 
	C88.883713,121.735641 91.460892,124.785568 94.300903,128.123322 
	C90.465347,131.630966 86.349480,134.865128 81.940582,138.178650 
z"/>
<path fill="#1D456A" opacity="1.000000" stroke="none" 
	d="
M126.692802,99.041443 
	C126.356155,99.049889 126.210327,98.728653 126.413025,98.472595 
	C126.615715,98.216537 126.963707,97.914894 127.266800,97.785553 
	C129.390823,95.443871 131.211746,93.231529 133.323181,90.858063 
	C136.048508,88.059433 138.483368,85.421944 140.918228,82.784462 
	C141.187790,83.459671 141.457336,84.134872 142.032104,85.028557 
	C138.932053,89.570000 135.526794,93.892975 132.035278,98.537735 
	C131.474380,99.168228 130.999741,99.476929 130.265076,99.899033 
	C129.013184,99.685959 128.021317,99.359482 126.692802,99.041443 
z"/>
<path fill="#3AB7DE" opacity="1.000000" stroke="none" 
	d="
M83.774536,153.953064 
	C80.890175,153.190506 78.005806,152.427963 75.035133,151.281250 
	C77.040604,149.265167 79.132370,147.633270 81.539513,145.882202 
	C83.510666,146.820343 85.166443,147.877640 87.012634,149.374008 
	C86.060204,151.193069 84.917374,152.573059 83.774536,153.953064 
z"/>
<path fill="#DCDCDC" opacity="1.000000" stroke="none" 
	d="
M118.502808,113.046059 
	C119.002808,113.316231 119.164131,113.604271 119.561089,113.982193 
	C120.583656,116.482742 121.370583,118.893402 122.113106,121.700195 
	C120.310051,120.163132 118.551399,118.229927 116.601929,115.944138 
	C116.995453,114.749008 117.579788,113.906471 118.502808,113.046059 
z"/>
<path fill="#DCDCDC" opacity="1.000000" stroke="none" 
	d="
M231.676666,118.286453 
	C236.620483,120.497284 238.180252,123.764236 236.850571,128.751648 
	C235.752823,132.869095 233.156219,134.829849 228.118896,133.789169 
	C228.118896,129.583374 227.917847,125.325211 228.263184,121.111832 
	C228.347336,120.085167 230.225952,119.205582 231.676666,118.286453 
z"/>
<path fill="#F7FBF7" opacity="1.000000" stroke="none" 
	d="
M83.688797,154.263763 
	C84.917374,152.573059 86.060204,151.193069 87.372147,149.512543 
	C89.995598,146.761963 92.407059,143.768890 95.709900,148.794983 
	C96.953651,150.319580 97.922844,151.637970 99.169861,153.069183 
	C102.502075,156.925674 105.556473,160.669327 108.737473,164.714615 
	C106.273346,164.016632 103.572487,163.230072 101.120361,161.962387 
	C98.193733,160.449387 96.832451,161.427368 96.134491,164.298004 
	C94.979965,169.046448 93.800819,173.788895 91.479111,178.611694 
	C90.429802,174.602127 89.365166,170.596497 88.334694,166.582092 
	C86.712646,160.263107 86.729881,160.276703 80.973778,162.956329 
	C79.938316,163.438354 78.812607,163.726501 77.346939,164.055023 
	C77.557022,162.867279 78.148735,161.728668 78.829483,160.279114 
	C80.480034,158.170242 82.041550,156.372345 83.688797,154.263763 
z"/>
<path fill="#F7FBF7" opacity="1.000000" stroke="none" 
	d="
M75.999649,164.948944 
	C75.948647,164.713486 76.195335,164.406738 76.730598,164.033722 
	C76.778564,164.270859 76.537949,164.574249 75.999649,164.948944 
z"/>
<path fill="#7EC23B" opacity="1.000000" stroke="none" 
	d="
M140.923950,82.546539 
	C138.483368,85.421944 136.048508,88.059433 132.967072,90.700310 
	C130.288513,90.488251 128.256561,90.272804 126.224594,90.057358 
	C125.777878,87.334076 125.331161,84.610794 124.832825,81.475876 
	C129.955673,81.145020 135.130142,81.225792 140.611450,81.569679 
	C140.918274,81.832794 140.929688,82.308624 140.923950,82.546539 
z"/>
<path fill="#284D76" opacity="1.000000" stroke="none" 
	d="
M120.884453,74.401154 
	C117.313950,76.047432 113.516167,77.224091 116.183044,83.612503 
	C112.333664,83.048401 109.307297,82.604904 106.280922,82.161400 
	C106.679901,81.783173 107.078873,81.404938 107.477844,81.026703 
	C106.206413,77.656174 104.934990,74.285645 103.110054,69.447777 
	C106.499237,72.199692 109.044739,74.266556 111.447525,76.217537 
	C113.832245,74.973862 115.999756,73.843475 118.539139,72.637215 
	C119.558777,73.064148 120.206535,73.566948 120.884453,74.401154 
z"/>
<path fill="#6CB336" opacity="1.000000" stroke="none" 
	d="
M126.169250,90.486671 
	C128.256561,90.272804 130.288513,90.488251 132.676575,90.861450 
	C131.211746,93.231529 129.390823,95.443871 127.170296,97.593170 
	C126.607689,97.280952 126.387154,97.103073 126.109093,96.996506 
	C126.110703,94.969666 126.112312,92.942825 126.169250,90.486671 
z"/>
<path fill="#7EC23B" opacity="1.000000" stroke="none" 
	d="
M126.082489,97.344002 
	C126.387154,97.103073 126.607689,97.280952 126.867203,97.722519 
	C126.963707,97.914894 126.615715,98.216537 126.398949,98.296761 
	C126.140083,98.148491 126.097984,97.919991 126.082489,97.344002 
z"/>
</svg>